<mxfile host="app.diagrams.net" agent="Mozilla/5.0 (Macintosh; Intel Mac OS X 10_15_7) AppleWebKit/605.1.15 (KHTML, like Gecko) Version/18.5 Safari/605.1.15" version="27.2.0">
  <diagram name="Page-1" id="gvlfn4-KPmvC11ERsSOG">
    <mxGraphModel dx="1349" dy="1163" grid="1" gridSize="10" guides="1" tooltips="1" connect="1" arrows="1" fold="1" page="1" pageScale="1" pageWidth="827" pageHeight="1169" math="0" shadow="0">
      <root>
        <mxCell id="0" />
        <mxCell id="1" parent="0" />
        <mxCell id="4nKQ3ArKpJ9SfnFAJcQ9-15" value="User" style="swimlane;fontStyle=1;align=center;verticalAlign=top;childLayout=stackLayout;horizontal=1;startSize=26;horizontalStack=0;resizeParent=1;resizeParentMax=0;resizeLast=0;collapsible=1;marginBottom=0;whiteSpace=wrap;html=1;" vertex="1" parent="1">
          <mxGeometry x="304" y="280" width="220" height="170" as="geometry" />
        </mxCell>
        <mxCell id="4nKQ3ArKpJ9SfnFAJcQ9-16" value="&lt;div style=&quot;background-color: rgb(255, 255, 254); font-family: Menlo, Monaco, &amp;quot;Courier New&amp;quot;, monospace; line-height: 18px; white-space: pre;&quot;&gt;&lt;div&gt;&lt;span style=&quot;font-weight: bold;&quot;&gt;+&lt;/span&gt;&lt;span style=&quot;color: rgb(43, 222, 168);&quot;&gt;string&lt;/span&gt;&lt;span style=&quot;color: rgb(162, 40, 137);&quot;&gt; Id&lt;/span&gt;&lt;/div&gt;&lt;div&gt;&lt;span style=&quot;font-weight: bold;&quot;&gt;+&lt;/span&gt;&lt;span style=&quot;color: rgb(43, 222, 168);&quot;&gt;string&lt;/span&gt;&lt;span style=&quot;color: rgb(162, 40, 137);&quot;&gt; Username&lt;/span&gt;&lt;/div&gt;&lt;div&gt;&lt;span style=&quot;font-weight: bold;&quot;&gt;+&lt;/span&gt;&lt;span style=&quot;color: rgb(43, 222, 168);&quot;&gt;string&lt;/span&gt;&lt;span style=&quot;color: rgb(162, 40, 137);&quot;&gt; Role&lt;/span&gt;&lt;/div&gt;&lt;div&gt;&lt;span style=&quot;font-weight: bold;&quot;&gt;+&lt;/span&gt;&lt;span style=&quot;color: rgb(43, 222, 168);&quot;&gt;string&lt;/span&gt;&lt;span style=&quot;color: rgb(162, 40, 137);&quot;&gt; Password&lt;/span&gt;&lt;/div&gt;&lt;/div&gt;" style="text;strokeColor=none;fillColor=none;align=left;verticalAlign=top;spacingLeft=4;spacingRight=4;overflow=hidden;rotatable=0;points=[[0,0.5],[1,0.5]];portConstraint=eastwest;whiteSpace=wrap;html=1;" vertex="1" parent="4nKQ3ArKpJ9SfnFAJcQ9-15">
          <mxGeometry y="26" width="220" height="84" as="geometry" />
        </mxCell>
        <mxCell id="4nKQ3ArKpJ9SfnFAJcQ9-17" value="" style="line;strokeWidth=1;fillColor=none;align=left;verticalAlign=middle;spacingTop=-1;spacingLeft=3;spacingRight=3;rotatable=0;labelPosition=right;points=[];portConstraint=eastwest;strokeColor=inherit;" vertex="1" parent="4nKQ3ArKpJ9SfnFAJcQ9-15">
          <mxGeometry y="110" width="220" height="8" as="geometry" />
        </mxCell>
        <mxCell id="4nKQ3ArKpJ9SfnFAJcQ9-18" value="&lt;div style=&quot;background-color: rgb(255, 255, 254); font-family: Menlo, Monaco, &amp;quot;Courier New&amp;quot;, monospace; line-height: 18px; white-space: pre;&quot;&gt;&lt;div&gt;&lt;span style=&quot;font-weight: bold;&quot;&gt;+ &lt;/span&gt;&lt;span style=&quot;color: rgb(162, 40, 137);&quot;&gt;getMyDetails&lt;/span&gt;&lt;span style=&quot;font-weight: bold;&quot;&gt;()&lt;/span&gt;&lt;/div&gt;&lt;div&gt;&lt;span style=&quot;font-weight: bold;&quot;&gt;+ &lt;/span&gt;&lt;span style=&quot;color: rgb(162, 40, 137);&quot;&gt;Authenticate&lt;/span&gt;&lt;span style=&quot;font-weight: bold;&quot;&gt;()&lt;/span&gt;&lt;/div&gt;&lt;/div&gt;" style="text;strokeColor=none;fillColor=none;align=left;verticalAlign=top;spacingLeft=4;spacingRight=4;overflow=hidden;rotatable=0;points=[[0,0.5],[1,0.5]];portConstraint=eastwest;whiteSpace=wrap;html=1;" vertex="1" parent="4nKQ3ArKpJ9SfnFAJcQ9-15">
          <mxGeometry y="118" width="220" height="52" as="geometry" />
        </mxCell>
        <mxCell id="4nKQ3ArKpJ9SfnFAJcQ9-69" style="edgeStyle=orthogonalEdgeStyle;rounded=0;orthogonalLoop=1;jettySize=auto;html=1;entryX=0;entryY=0.5;entryDx=0;entryDy=0;" edge="1" parent="1" source="4nKQ3ArKpJ9SfnFAJcQ9-19" target="4nKQ3ArKpJ9SfnFAJcQ9-44">
          <mxGeometry relative="1" as="geometry" />
        </mxCell>
        <mxCell id="4nKQ3ArKpJ9SfnFAJcQ9-19" value="Bug" style="swimlane;fontStyle=1;align=center;verticalAlign=top;childLayout=stackLayout;horizontal=1;startSize=26;horizontalStack=0;resizeParent=1;resizeParentMax=0;resizeLast=0;collapsible=1;marginBottom=0;whiteSpace=wrap;html=1;" vertex="1" parent="1">
          <mxGeometry x="800" y="280" width="220" height="300" as="geometry" />
        </mxCell>
        <mxCell id="4nKQ3ArKpJ9SfnFAJcQ9-20" value="&lt;div style=&quot;background-color: rgb(255, 255, 254); font-family: Menlo, Monaco, &amp;quot;Courier New&amp;quot;, monospace; line-height: 18px; white-space: pre;&quot;&gt;&lt;div style=&quot;line-height: 18px;&quot;&gt;&lt;div style=&quot;line-height: 18px;&quot;&gt;&lt;div&gt;&lt;span style=&quot;font-weight: bold;&quot;&gt;+&lt;/span&gt;&lt;span style=&quot;color: rgb(43, 222, 168);&quot;&gt;int&lt;/span&gt;&lt;span style=&quot;color: rgb(162, 40, 137);&quot;&gt; Id&lt;/span&gt;&lt;/div&gt;&lt;div&gt;&lt;span style=&quot;font-weight: bold;&quot;&gt;+&lt;/span&gt;&lt;span style=&quot;color: rgb(43, 222, 168);&quot;&gt;string&lt;/span&gt;&lt;span style=&quot;color: rgb(162, 40, 137);&quot;&gt; Title&lt;/span&gt;&lt;/div&gt;&lt;div&gt;&lt;span style=&quot;font-weight: bold;&quot;&gt;+&lt;/span&gt;&lt;span style=&quot;color: rgb(43, 222, 168);&quot;&gt;string&lt;/span&gt;&lt;span style=&quot;color: rgb(162, 40, 137);&quot;&gt; Description&lt;/span&gt;&lt;/div&gt;&lt;div&gt;&lt;span style=&quot;font-weight: bold;&quot;&gt;+&lt;/span&gt;&lt;span style=&quot;color: rgb(162, 40, 137);&quot;&gt;string&lt;/span&gt;? &lt;span style=&quot;color: rgb(162, 40, 137);&quot;&gt;ScreenshotUrl&lt;/span&gt;&lt;/div&gt;&lt;div&gt;&lt;span style=&quot;font-weight: bold;&quot;&gt;+&lt;/span&gt;&lt;span style=&quot;color: rgb(43, 222, 168);&quot;&gt;BugPriority&lt;/span&gt;&lt;span style=&quot;color: rgb(162, 40, 137);&quot;&gt; Priority&lt;/span&gt;&lt;/div&gt;&lt;div&gt;&lt;span style=&quot;font-weight: bold;&quot;&gt;+&lt;/span&gt;&lt;span style=&quot;color: rgb(43, 222, 168);&quot;&gt;BugStatus&lt;/span&gt;&lt;span style=&quot;color: rgb(162, 40, 137);&quot;&gt; Status&lt;/span&gt;&lt;/div&gt;&lt;div&gt;&lt;span style=&quot;font-weight: bold;&quot;&gt;+&lt;/span&gt;&lt;span style=&quot;color: rgb(43, 222, 168);&quot;&gt;string&lt;/span&gt;&lt;span style=&quot;color: rgb(162, 40, 137);&quot;&gt; CreatedBy&lt;/span&gt;&lt;/div&gt;&lt;div&gt;&lt;span style=&quot;font-weight: bold;&quot;&gt;+&lt;/span&gt;&lt;span style=&quot;color: rgb(162, 40, 137);&quot;&gt;string&lt;/span&gt;? &lt;span style=&quot;color: rgb(162, 40, 137);&quot;&gt;AssignedTo&lt;/span&gt;&lt;/div&gt;&lt;div&gt;&lt;span style=&quot;font-weight: bold;&quot;&gt;+&lt;/span&gt;&lt;span style=&quot;color: rgb(43, 222, 168);&quot;&gt;bool&lt;/span&gt;&lt;span style=&quot;color: rgb(162, 40, 137);&quot;&gt; IsDeleted&lt;/span&gt;&lt;/div&gt;&lt;div&gt;&lt;span style=&quot;font-weight: bold;&quot;&gt;+&lt;/span&gt;&lt;span style=&quot;color: rgb(43, 222, 168);&quot;&gt;DateTime&lt;/span&gt;&lt;span style=&quot;color: rgb(162, 40, 137);&quot;&gt; CreatedAt&lt;/span&gt;&lt;/div&gt;&lt;div&gt;&lt;span style=&quot;font-weight: bold;&quot;&gt;+&lt;/span&gt;&lt;span style=&quot;color: rgb(43, 222, 168);&quot;&gt;DateTime&lt;/span&gt;&lt;span style=&quot;color: rgb(162, 40, 137);&quot;&gt; UpdatedAt&lt;/span&gt;&lt;/div&gt;&lt;/div&gt;&lt;/div&gt;&lt;/div&gt;" style="text;strokeColor=none;fillColor=none;align=left;verticalAlign=top;spacingLeft=4;spacingRight=4;overflow=hidden;rotatable=0;points=[[0,0.5],[1,0.5]];portConstraint=eastwest;whiteSpace=wrap;html=1;" vertex="1" parent="4nKQ3ArKpJ9SfnFAJcQ9-19">
          <mxGeometry y="26" width="220" height="214" as="geometry" />
        </mxCell>
        <mxCell id="4nKQ3ArKpJ9SfnFAJcQ9-21" value="" style="line;strokeWidth=1;fillColor=none;align=left;verticalAlign=middle;spacingTop=-1;spacingLeft=3;spacingRight=3;rotatable=0;labelPosition=right;points=[];portConstraint=eastwest;strokeColor=inherit;" vertex="1" parent="4nKQ3ArKpJ9SfnFAJcQ9-19">
          <mxGeometry y="240" width="220" height="8" as="geometry" />
        </mxCell>
        <mxCell id="4nKQ3ArKpJ9SfnFAJcQ9-22" value="&lt;div style=&quot;background-color: rgb(255, 255, 254); font-family: Menlo, Monaco, &amp;quot;Courier New&amp;quot;, monospace; line-height: 18px; white-space: pre;&quot;&gt;&lt;div style=&quot;line-height: 18px;&quot;&gt;&lt;div style=&quot;line-height: 18px;&quot;&gt;&lt;div&gt;&lt;span style=&quot;font-weight: bold;&quot;&gt;+ &lt;/span&gt;&lt;span style=&quot;color: rgb(162, 40, 137);&quot;&gt;UpdateStatus&lt;/span&gt;&lt;span style=&quot;font-weight: bold;&quot;&gt;(&lt;/span&gt;&lt;span style=&quot;color: rgb(162, 40, 137);&quot;&gt;status&lt;/span&gt;&lt;span style=&quot;font-weight: bold;&quot;&gt;)&lt;/span&gt;&lt;/div&gt;&lt;div&gt;&lt;span style=&quot;font-weight: bold;&quot;&gt;+ &lt;/span&gt;&lt;span style=&quot;color: rgb(162, 40, 137);&quot;&gt;AssignTo&lt;/span&gt;&lt;span style=&quot;font-weight: bold;&quot;&gt;(&lt;/span&gt;&lt;span style=&quot;color: rgb(162, 40, 137);&quot;&gt;developerId&lt;/span&gt;&lt;span style=&quot;font-weight: bold;&quot;&gt;)&lt;/span&gt;&lt;/div&gt;&lt;/div&gt;&lt;/div&gt;&lt;/div&gt;" style="text;strokeColor=none;fillColor=none;align=left;verticalAlign=top;spacingLeft=4;spacingRight=4;overflow=hidden;rotatable=0;points=[[0,0.5],[1,0.5]];portConstraint=eastwest;whiteSpace=wrap;html=1;" vertex="1" parent="4nKQ3ArKpJ9SfnFAJcQ9-19">
          <mxGeometry y="248" width="220" height="52" as="geometry" />
        </mxCell>
        <mxCell id="4nKQ3ArKpJ9SfnFAJcQ9-58" style="edgeStyle=orthogonalEdgeStyle;rounded=0;orthogonalLoop=1;jettySize=auto;html=1;entryX=1;entryY=0.5;entryDx=0;entryDy=0;" edge="1" parent="1" source="4nKQ3ArKpJ9SfnFAJcQ9-23" target="4nKQ3ArKpJ9SfnFAJcQ9-16">
          <mxGeometry relative="1" as="geometry" />
        </mxCell>
        <mxCell id="4nKQ3ArKpJ9SfnFAJcQ9-23" value="Developer" style="swimlane;fontStyle=1;align=center;verticalAlign=top;childLayout=stackLayout;horizontal=1;startSize=26;horizontalStack=0;resizeParent=1;resizeParentMax=0;resizeLast=0;collapsible=1;marginBottom=0;whiteSpace=wrap;html=1;" vertex="1" parent="1">
          <mxGeometry x="540" y="40" width="220" height="180" as="geometry" />
        </mxCell>
        <mxCell id="4nKQ3ArKpJ9SfnFAJcQ9-24" value="&lt;div style=&quot;background-color: rgb(255, 255, 254); font-family: Menlo, Monaco, &amp;quot;Courier New&amp;quot;, monospace; line-height: 18px; white-space: pre;&quot;&gt;&lt;div style=&quot;line-height: 18px;&quot;&gt;&lt;div&gt;&lt;span style=&quot;font-weight: bold;&quot;&gt;+&lt;/span&gt;&lt;span style=&quot;color: rgb(43, 222, 168);&quot;&gt;string&lt;/span&gt;&lt;span style=&quot;color: rgb(162, 40, 137);&quot;&gt; Id&lt;/span&gt;&lt;/div&gt;&lt;div&gt;&lt;span style=&quot;font-weight: bold;&quot;&gt;+&lt;/span&gt;&lt;span style=&quot;color: rgb(43, 222, 168);&quot;&gt;string&lt;/span&gt;&lt;span style=&quot;color: rgb(162, 40, 137);&quot;&gt; Name&lt;/span&gt;&lt;/div&gt;&lt;div&gt;&lt;span style=&quot;font-weight: bold;&quot;&gt;+&lt;/span&gt;&lt;span style=&quot;color: rgb(43, 222, 168);&quot;&gt;string&lt;/span&gt;&lt;span style=&quot;color: rgb(162, 40, 137);&quot;&gt; Email&lt;/span&gt;&lt;/div&gt;&lt;div&gt;&lt;span style=&quot;font-weight: bold;&quot;&gt;+&lt;/span&gt;&lt;span style=&quot;color: rgb(43, 222, 168);&quot;&gt;string&lt;/span&gt;&lt;span style=&quot;color: rgb(162, 40, 137);&quot;&gt; Password&lt;/span&gt;&lt;/div&gt;&lt;div&gt;&lt;span style=&quot;color: rgb(162, 40, 137);&quot;&gt;&lt;div style=&quot;color: rgb(0, 0, 0); line-height: 18px;&quot;&gt;&lt;div&gt;&lt;span style=&quot;font-weight: bold;&quot;&gt;+&lt;/span&gt;&lt;span style=&quot;color: rgb(43, 222, 168);&quot;&gt;bool&lt;/span&gt;&lt;span style=&quot;color: rgb(162, 40, 137);&quot;&gt; IsDeleted&lt;/span&gt;&lt;/div&gt;&lt;div&gt;    &lt;br&gt;&lt;/div&gt;&lt;/div&gt;&lt;/span&gt;&lt;/div&gt;&lt;/div&gt;&lt;/div&gt;" style="text;strokeColor=none;fillColor=none;align=left;verticalAlign=top;spacingLeft=4;spacingRight=4;overflow=hidden;rotatable=0;points=[[0,0.5],[1,0.5]];portConstraint=eastwest;whiteSpace=wrap;html=1;" vertex="1" parent="4nKQ3ArKpJ9SfnFAJcQ9-23">
          <mxGeometry y="26" width="220" height="94" as="geometry" />
        </mxCell>
        <mxCell id="4nKQ3ArKpJ9SfnFAJcQ9-25" value="" style="line;strokeWidth=1;fillColor=none;align=left;verticalAlign=middle;spacingTop=-1;spacingLeft=3;spacingRight=3;rotatable=0;labelPosition=right;points=[];portConstraint=eastwest;strokeColor=inherit;" vertex="1" parent="4nKQ3ArKpJ9SfnFAJcQ9-23">
          <mxGeometry y="120" width="220" height="8" as="geometry" />
        </mxCell>
        <mxCell id="4nKQ3ArKpJ9SfnFAJcQ9-26" value="&lt;div style=&quot;background-color: rgb(255, 255, 254); font-family: Menlo, Monaco, &amp;quot;Courier New&amp;quot;, monospace; line-height: 18px; white-space: pre;&quot;&gt;&lt;div style=&quot;line-height: 18px;&quot;&gt;&lt;div style=&quot;line-height: 18px;&quot;&gt;&lt;div&gt;&lt;span style=&quot;font-weight: bold;&quot;&gt;+ &lt;/span&gt;&lt;span style=&quot;color: rgb(162, 40, 137);&quot;&gt;UploadCodeFile&lt;/span&gt;&lt;span style=&quot;font-weight: bold;&quot;&gt;()&lt;/span&gt;&lt;/div&gt;&lt;div&gt;&lt;span style=&quot;font-weight: bold;&quot;&gt;+ &lt;/span&gt;&lt;span style=&quot;color: rgb(162, 40, 137);&quot;&gt;ChangeBugStatus&lt;/span&gt;&lt;span style=&quot;font-weight: bold;&quot;&gt;(&lt;/span&gt;&lt;span style=&quot;color: rgb(162, 40, 137);&quot;&gt;status&lt;/span&gt;&lt;span style=&quot;font-weight: bold;&quot;&gt;)&lt;/span&gt;&lt;/div&gt;&lt;/div&gt;&lt;/div&gt;&lt;/div&gt;" style="text;strokeColor=none;fillColor=none;align=left;verticalAlign=top;spacingLeft=4;spacingRight=4;overflow=hidden;rotatable=0;points=[[0,0.5],[1,0.5]];portConstraint=eastwest;whiteSpace=wrap;html=1;" vertex="1" parent="4nKQ3ArKpJ9SfnFAJcQ9-23">
          <mxGeometry y="128" width="220" height="52" as="geometry" />
        </mxCell>
        <mxCell id="4nKQ3ArKpJ9SfnFAJcQ9-27" value="Tester" style="swimlane;fontStyle=1;align=center;verticalAlign=top;childLayout=stackLayout;horizontal=1;startSize=26;horizontalStack=0;resizeParent=1;resizeParentMax=0;resizeLast=0;collapsible=1;marginBottom=0;whiteSpace=wrap;html=1;" vertex="1" parent="1">
          <mxGeometry x="540" y="480" width="220" height="200" as="geometry" />
        </mxCell>
        <mxCell id="4nKQ3ArKpJ9SfnFAJcQ9-28" value="&lt;div style=&quot;background-color: rgb(255, 255, 254); font-family: Menlo, Monaco, &amp;quot;Courier New&amp;quot;, monospace; line-height: 18px; white-space: pre;&quot;&gt;&lt;div style=&quot;line-height: 18px;&quot;&gt;&lt;div&gt;&lt;span style=&quot;font-weight: bold;&quot;&gt;+&lt;/span&gt;&lt;span style=&quot;color: rgb(43, 222, 168);&quot;&gt;string&lt;/span&gt;&lt;span style=&quot;color: rgb(162, 40, 137);&quot;&gt; Id&lt;/span&gt;&lt;/div&gt;&lt;div&gt;&lt;span style=&quot;font-weight: bold;&quot;&gt;+&lt;/span&gt;&lt;span style=&quot;color: rgb(43, 222, 168);&quot;&gt;string&lt;/span&gt;&lt;span style=&quot;color: rgb(162, 40, 137);&quot;&gt; Name&lt;/span&gt;&lt;/div&gt;&lt;div&gt;&lt;span style=&quot;font-weight: bold;&quot;&gt;+&lt;/span&gt;&lt;span style=&quot;color: rgb(43, 222, 168);&quot;&gt;string&lt;/span&gt;&lt;span style=&quot;color: rgb(162, 40, 137);&quot;&gt; Email&lt;/span&gt;&lt;/div&gt;&lt;div&gt;&lt;span style=&quot;font-weight: bold;&quot;&gt;+&lt;/span&gt;&lt;span style=&quot;color: rgb(43, 222, 168);&quot;&gt;string&lt;/span&gt;&lt;span style=&quot;color: rgb(162, 40, 137);&quot;&gt; Password&lt;/span&gt;&lt;/div&gt;&lt;div&gt;&lt;span style=&quot;color: rgb(162, 40, 137);&quot;&gt;&lt;div style=&quot;color: rgb(0, 0, 0); line-height: 18px;&quot;&gt;&lt;div&gt;&lt;span style=&quot;font-weight: bold;&quot;&gt;+&lt;/span&gt;&lt;span style=&quot;color: rgb(43, 222, 168);&quot;&gt;bool&lt;/span&gt;&lt;span style=&quot;color: rgb(162, 40, 137);&quot;&gt; IsDeleted&lt;/span&gt;&lt;/div&gt;&lt;div&gt;    &lt;br&gt;&lt;/div&gt;&lt;/div&gt;&lt;/span&gt;&lt;/div&gt;&lt;/div&gt;&lt;/div&gt;" style="text;strokeColor=none;fillColor=none;align=left;verticalAlign=top;spacingLeft=4;spacingRight=4;overflow=hidden;rotatable=0;points=[[0,0.5],[1,0.5]];portConstraint=eastwest;whiteSpace=wrap;html=1;" vertex="1" parent="4nKQ3ArKpJ9SfnFAJcQ9-27">
          <mxGeometry y="26" width="220" height="94" as="geometry" />
        </mxCell>
        <mxCell id="4nKQ3ArKpJ9SfnFAJcQ9-29" value="" style="line;strokeWidth=1;fillColor=none;align=left;verticalAlign=middle;spacingTop=-1;spacingLeft=3;spacingRight=3;rotatable=0;labelPosition=right;points=[];portConstraint=eastwest;strokeColor=inherit;" vertex="1" parent="4nKQ3ArKpJ9SfnFAJcQ9-27">
          <mxGeometry y="120" width="220" height="8" as="geometry" />
        </mxCell>
        <mxCell id="4nKQ3ArKpJ9SfnFAJcQ9-30" value="&lt;div style=&quot;background-color: rgb(255, 255, 254); font-family: Menlo, Monaco, &amp;quot;Courier New&amp;quot;, monospace; line-height: 18px; white-space: pre;&quot;&gt;&lt;div style=&quot;line-height: 18px;&quot;&gt;&lt;div style=&quot;line-height: 18px;&quot;&gt;&lt;div style=&quot;line-height: 18px;&quot;&gt;&lt;div&gt;&lt;span style=&quot;font-weight: bold;&quot;&gt;+ &lt;/span&gt;&lt;span style=&quot;color: rgb(162, 40, 137);&quot;&gt;CreateBug&lt;/span&gt;&lt;span style=&quot;font-weight: bold;&quot;&gt;()&lt;/span&gt;&lt;/div&gt;&lt;div&gt;&lt;span style=&quot;font-weight: bold;&quot;&gt;+ &lt;/span&gt;&lt;span style=&quot;color: rgb(162, 40, 137);&quot;&gt;UploadScreenshot&lt;/span&gt;&lt;span style=&quot;font-weight: bold;&quot;&gt;()&lt;/span&gt;&lt;/div&gt;&lt;div&gt;&lt;span style=&quot;font-weight: bold;&quot;&gt;+ &lt;/span&gt;&lt;span style=&quot;color: rgb(162, 40, 137);&quot;&gt;UpdateBugStatus&lt;/span&gt;&lt;span style=&quot;font-weight: bold;&quot;&gt;(&lt;/span&gt;&lt;span style=&quot;color: rgb(162, 40, 137);&quot;&gt;status&lt;/span&gt;&lt;span style=&quot;font-weight: bold;&quot;&gt;)&lt;/span&gt;&lt;/div&gt;&lt;/div&gt;&lt;/div&gt;&lt;/div&gt;&lt;/div&gt;" style="text;strokeColor=none;fillColor=none;align=left;verticalAlign=top;spacingLeft=4;spacingRight=4;overflow=hidden;rotatable=0;points=[[0,0.5],[1,0.5]];portConstraint=eastwest;whiteSpace=wrap;html=1;" vertex="1" parent="4nKQ3ArKpJ9SfnFAJcQ9-27">
          <mxGeometry y="128" width="220" height="72" as="geometry" />
        </mxCell>
        <mxCell id="4nKQ3ArKpJ9SfnFAJcQ9-31" value="Admin" style="swimlane;fontStyle=1;align=center;verticalAlign=top;childLayout=stackLayout;horizontal=1;startSize=26;horizontalStack=0;resizeParent=1;resizeParentMax=0;resizeLast=0;collapsible=1;marginBottom=0;whiteSpace=wrap;html=1;" vertex="1" parent="1">
          <mxGeometry x="40" y="40" width="220" height="220" as="geometry" />
        </mxCell>
        <mxCell id="4nKQ3ArKpJ9SfnFAJcQ9-32" value="&lt;div style=&quot;background-color: rgb(255, 255, 254); font-family: Menlo, Monaco, &amp;quot;Courier New&amp;quot;, monospace; line-height: 18px; white-space: pre;&quot;&gt;&lt;div style=&quot;line-height: 18px;&quot;&gt;&lt;div&gt;&lt;span style=&quot;font-weight: bold;&quot;&gt;+&lt;/span&gt;&lt;span style=&quot;color: rgb(43, 222, 168);&quot;&gt;string&lt;/span&gt;&lt;span style=&quot;color: rgb(162, 40, 137);&quot;&gt; Id&lt;/span&gt;&lt;/div&gt;&lt;div&gt;&lt;span style=&quot;font-weight: bold;&quot;&gt;+&lt;/span&gt;&lt;span style=&quot;color: rgb(43, 222, 168);&quot;&gt;string&lt;/span&gt;&lt;span style=&quot;color: rgb(162, 40, 137);&quot;&gt; Name&lt;/span&gt;&lt;/div&gt;&lt;div&gt;&lt;span style=&quot;font-weight: bold;&quot;&gt;+&lt;/span&gt;&lt;span style=&quot;color: rgb(43, 222, 168);&quot;&gt;string&lt;/span&gt;&lt;span style=&quot;color: rgb(162, 40, 137);&quot;&gt; Email&lt;/span&gt;&lt;/div&gt;&lt;div&gt;&lt;span style=&quot;font-weight: bold;&quot;&gt;+&lt;/span&gt;&lt;span style=&quot;color: rgb(43, 222, 168);&quot;&gt;string&lt;/span&gt;&lt;span style=&quot;color: rgb(162, 40, 137);&quot;&gt; Password&lt;/span&gt;&lt;/div&gt;&lt;/div&gt;&lt;/div&gt;" style="text;strokeColor=none;fillColor=none;align=left;verticalAlign=top;spacingLeft=4;spacingRight=4;overflow=hidden;rotatable=0;points=[[0,0.5],[1,0.5]];portConstraint=eastwest;whiteSpace=wrap;html=1;" vertex="1" parent="4nKQ3ArKpJ9SfnFAJcQ9-31">
          <mxGeometry y="26" width="220" height="84" as="geometry" />
        </mxCell>
        <mxCell id="4nKQ3ArKpJ9SfnFAJcQ9-33" value="" style="line;strokeWidth=1;fillColor=none;align=left;verticalAlign=middle;spacingTop=-1;spacingLeft=3;spacingRight=3;rotatable=0;labelPosition=right;points=[];portConstraint=eastwest;strokeColor=inherit;" vertex="1" parent="4nKQ3ArKpJ9SfnFAJcQ9-31">
          <mxGeometry y="110" width="220" height="8" as="geometry" />
        </mxCell>
        <mxCell id="4nKQ3ArKpJ9SfnFAJcQ9-34" value="&lt;div style=&quot;background-color: rgb(255, 255, 254); font-family: Menlo, Monaco, &amp;quot;Courier New&amp;quot;, monospace; line-height: 18px; white-space: pre;&quot;&gt;&lt;div style=&quot;line-height: 18px;&quot;&gt;&lt;div&gt;&lt;span style=&quot;font-weight: bold;&quot;&gt;+ &lt;/span&gt;&lt;span style=&quot;color: rgb(162, 40, 137);&quot;&gt;CreateDeveloper&lt;/span&gt;&lt;span style=&quot;font-weight: bold;&quot;&gt;()&lt;/span&gt;&lt;/div&gt;&lt;div&gt;&lt;span style=&quot;font-weight: bold;&quot;&gt;+ &lt;/span&gt;&lt;span style=&quot;color: rgb(162, 40, 137);&quot;&gt;CreateTester&lt;/span&gt;&lt;span style=&quot;font-weight: bold;&quot;&gt;()&lt;/span&gt;&lt;/div&gt;&lt;div&gt;&lt;span style=&quot;font-weight: bold;&quot;&gt;+ &lt;/span&gt;&lt;span style=&quot;color: rgb(162, 40, 137);&quot;&gt;DeactivateUser&lt;/span&gt;&lt;span style=&quot;font-weight: bold;&quot;&gt;()&lt;/span&gt;&lt;/div&gt;&lt;div&gt;&lt;span style=&quot;font-weight: bold;&quot;&gt;+ &lt;/span&gt;&lt;span style=&quot;color: rgb(162, 40, 137);&quot;&gt;AssignBug&lt;/span&gt;&lt;span style=&quot;font-weight: bold;&quot;&gt;()&lt;/span&gt;&lt;/div&gt;&lt;div&gt;&lt;span style=&quot;font-weight: bold;&quot;&gt;+ &lt;/span&gt;&lt;span style=&quot;color: rgb(162, 40, 137);&quot;&gt;CloseBug&lt;/span&gt;&lt;span style=&quot;font-weight: bold;&quot;&gt;()&lt;/span&gt;&lt;/div&gt;&lt;/div&gt;&lt;/div&gt;" style="text;strokeColor=none;fillColor=none;align=left;verticalAlign=top;spacingLeft=4;spacingRight=4;overflow=hidden;rotatable=0;points=[[0,0.5],[1,0.5]];portConstraint=eastwest;whiteSpace=wrap;html=1;" vertex="1" parent="4nKQ3ArKpJ9SfnFAJcQ9-31">
          <mxGeometry y="118" width="220" height="102" as="geometry" />
        </mxCell>
        <mxCell id="4nKQ3ArKpJ9SfnFAJcQ9-35" value="Comment" style="swimlane;fontStyle=1;align=center;verticalAlign=top;childLayout=stackLayout;horizontal=1;startSize=26;horizontalStack=0;resizeParent=1;resizeParentMax=0;resizeLast=0;collapsible=1;marginBottom=0;whiteSpace=wrap;html=1;" vertex="1" parent="1">
          <mxGeometry x="290" y="560" width="220" height="190" as="geometry" />
        </mxCell>
        <mxCell id="4nKQ3ArKpJ9SfnFAJcQ9-36" value="&lt;div style=&quot;background-color: rgb(255, 255, 254); font-family: Menlo, Monaco, &amp;quot;Courier New&amp;quot;, monospace; line-height: 18px; white-space: pre;&quot;&gt;&lt;div style=&quot;line-height: 18px;&quot;&gt;&lt;div style=&quot;line-height: 18px;&quot;&gt;&lt;div&gt;&lt;span style=&quot;font-weight: bold;&quot;&gt;+&lt;/span&gt;&lt;span style=&quot;color: rgb(43, 222, 168);&quot;&gt;int&lt;/span&gt;&lt;span style=&quot;color: rgb(162, 40, 137);&quot;&gt; Id&lt;/span&gt;&lt;/div&gt;&lt;div&gt;&lt;span style=&quot;font-weight: bold;&quot;&gt;+&lt;/span&gt;&lt;span style=&quot;color: rgb(43, 222, 168);&quot;&gt;int&lt;/span&gt;&lt;span style=&quot;color: rgb(162, 40, 137);&quot;&gt; BugId&lt;/span&gt;&lt;/div&gt;&lt;div&gt;&lt;span style=&quot;font-weight: bold;&quot;&gt;+&lt;/span&gt;&lt;span style=&quot;color: rgb(43, 222, 168);&quot;&gt;string&lt;/span&gt;&lt;span style=&quot;color: rgb(162, 40, 137);&quot;&gt; UserId&lt;/span&gt;&lt;/div&gt;&lt;div&gt;&lt;span style=&quot;font-weight: bold;&quot;&gt;+&lt;/span&gt;&lt;span style=&quot;color: rgb(43, 222, 168);&quot;&gt;string&lt;/span&gt;&lt;span style=&quot;color: rgb(162, 40, 137);&quot;&gt; Message&lt;/span&gt;&lt;/div&gt;&lt;div&gt;&lt;span style=&quot;font-weight: bold;&quot;&gt;+&lt;/span&gt;&lt;span style=&quot;color: rgb(43, 222, 168);&quot;&gt;DateTime&lt;/span&gt;&lt;span style=&quot;color: rgb(162, 40, 137);&quot;&gt; CreatedAt&lt;/span&gt;&lt;/div&gt;&lt;/div&gt;&lt;/div&gt;&lt;/div&gt;" style="text;strokeColor=none;fillColor=none;align=left;verticalAlign=top;spacingLeft=4;spacingRight=4;overflow=hidden;rotatable=0;points=[[0,0.5],[1,0.5]];portConstraint=eastwest;whiteSpace=wrap;html=1;" vertex="1" parent="4nKQ3ArKpJ9SfnFAJcQ9-35">
          <mxGeometry y="26" width="220" height="104" as="geometry" />
        </mxCell>
        <mxCell id="4nKQ3ArKpJ9SfnFAJcQ9-37" value="" style="line;strokeWidth=1;fillColor=none;align=left;verticalAlign=middle;spacingTop=-1;spacingLeft=3;spacingRight=3;rotatable=0;labelPosition=right;points=[];portConstraint=eastwest;strokeColor=inherit;" vertex="1" parent="4nKQ3ArKpJ9SfnFAJcQ9-35">
          <mxGeometry y="130" width="220" height="8" as="geometry" />
        </mxCell>
        <mxCell id="4nKQ3ArKpJ9SfnFAJcQ9-38" value="&lt;div style=&quot;background-color: rgb(255, 255, 254); font-family: Menlo, Monaco, &amp;quot;Courier New&amp;quot;, monospace; line-height: 18px; white-space: pre;&quot;&gt;&lt;div style=&quot;line-height: 18px;&quot;&gt;&lt;div style=&quot;line-height: 18px;&quot;&gt;&lt;div&gt;&lt;span style=&quot;font-weight: bold;&quot;&gt;+ &lt;/span&gt;&lt;span style=&quot;color: rgb(162, 40, 137);&quot;&gt;AddComment&lt;/span&gt;&lt;span style=&quot;font-weight: bold;&quot;&gt;()&lt;/span&gt;&lt;/div&gt;&lt;div&gt;&lt;span style=&quot;font-weight: bold;&quot;&gt;+ &lt;/span&gt;&lt;span style=&quot;color: rgb(162, 40, 137);&quot;&gt;GetCommentsByBug&lt;/span&gt;&lt;span style=&quot;font-weight: bold;&quot;&gt;()&lt;/span&gt;&lt;/div&gt;&lt;/div&gt;&lt;/div&gt;&lt;/div&gt;" style="text;strokeColor=none;fillColor=none;align=left;verticalAlign=top;spacingLeft=4;spacingRight=4;overflow=hidden;rotatable=0;points=[[0,0.5],[1,0.5]];portConstraint=eastwest;whiteSpace=wrap;html=1;" vertex="1" parent="4nKQ3ArKpJ9SfnFAJcQ9-35">
          <mxGeometry y="138" width="220" height="52" as="geometry" />
        </mxCell>
        <mxCell id="4nKQ3ArKpJ9SfnFAJcQ9-39" value="UploadFileLog" style="swimlane;fontStyle=1;align=center;verticalAlign=top;childLayout=stackLayout;horizontal=1;startSize=26;horizontalStack=0;resizeParent=1;resizeParentMax=0;resizeLast=0;collapsible=1;marginBottom=0;whiteSpace=wrap;html=1;" vertex="1" parent="1">
          <mxGeometry x="880" y="65" width="220" height="170" as="geometry" />
        </mxCell>
        <mxCell id="4nKQ3ArKpJ9SfnFAJcQ9-40" value="&lt;div style=&quot;background-color: rgb(255, 255, 254); font-family: Menlo, Monaco, &amp;quot;Courier New&amp;quot;, monospace; line-height: 18px; white-space: pre;&quot;&gt;&lt;div style=&quot;line-height: 18px;&quot;&gt;&lt;div style=&quot;line-height: 18px;&quot;&gt;&lt;div style=&quot;line-height: 18px;&quot;&gt;&lt;div&gt;&lt;span style=&quot;font-weight: bold;&quot;&gt;+&lt;/span&gt;&lt;span style=&quot;color: rgb(43, 222, 168);&quot;&gt;int&lt;/span&gt;&lt;span style=&quot;color: rgb(162, 40, 137);&quot;&gt; Id&lt;/span&gt;&lt;/div&gt;&lt;div&gt;&lt;span style=&quot;font-weight: bold;&quot;&gt;+&lt;/span&gt;&lt;span style=&quot;color: rgb(43, 222, 168);&quot;&gt;string&lt;/span&gt;&lt;span style=&quot;color: rgb(162, 40, 137);&quot;&gt; DeveloperId&lt;/span&gt;&lt;/div&gt;&lt;div&gt;&lt;span style=&quot;font-weight: bold;&quot;&gt;+&lt;/span&gt;&lt;span style=&quot;color: rgb(43, 222, 168);&quot;&gt;string&lt;/span&gt;&lt;span style=&quot;color: rgb(162, 40, 137);&quot;&gt; FileName&lt;/span&gt;&lt;/div&gt;&lt;div&gt;&lt;span style=&quot;font-weight: bold;&quot;&gt;+&lt;/span&gt;&lt;span style=&quot;color: rgb(43, 222, 168);&quot;&gt;string&lt;/span&gt;&lt;span style=&quot;color: rgb(162, 40, 137);&quot;&gt; FilePath&lt;/span&gt;&lt;/div&gt;&lt;div&gt;&lt;span style=&quot;font-weight: bold;&quot;&gt;+&lt;/span&gt;&lt;span style=&quot;color: rgb(43, 222, 168);&quot;&gt;DateTime&lt;/span&gt;&lt;span style=&quot;color: rgb(162, 40, 137);&quot;&gt; UploadedAt&lt;/span&gt;&lt;/div&gt;&lt;/div&gt;&lt;/div&gt;&lt;/div&gt;&lt;/div&gt;" style="text;strokeColor=none;fillColor=none;align=left;verticalAlign=top;spacingLeft=4;spacingRight=4;overflow=hidden;rotatable=0;points=[[0,0.5],[1,0.5]];portConstraint=eastwest;whiteSpace=wrap;html=1;" vertex="1" parent="4nKQ3ArKpJ9SfnFAJcQ9-39">
          <mxGeometry y="26" width="220" height="104" as="geometry" />
        </mxCell>
        <mxCell id="4nKQ3ArKpJ9SfnFAJcQ9-41" value="" style="line;strokeWidth=1;fillColor=none;align=left;verticalAlign=middle;spacingTop=-1;spacingLeft=3;spacingRight=3;rotatable=0;labelPosition=right;points=[];portConstraint=eastwest;strokeColor=inherit;" vertex="1" parent="4nKQ3ArKpJ9SfnFAJcQ9-39">
          <mxGeometry y="130" width="220" height="8" as="geometry" />
        </mxCell>
        <mxCell id="4nKQ3ArKpJ9SfnFAJcQ9-42" value="&lt;div style=&quot;background-color: rgb(255, 255, 254); font-family: Menlo, Monaco, &amp;quot;Courier New&amp;quot;, monospace; line-height: 18px; white-space: pre;&quot;&gt;&lt;div style=&quot;line-height: 18px;&quot;&gt;&lt;div style=&quot;line-height: 18px;&quot;&gt;&lt;div style=&quot;line-height: 18px;&quot;&gt;&lt;span style=&quot;font-weight: bold;&quot;&gt;+ &lt;/span&gt;&lt;span style=&quot;color: rgb(162, 40, 137);&quot;&gt;LogFileUpload&lt;/span&gt;&lt;span style=&quot;font-weight: bold;&quot;&gt;()&lt;/span&gt;&lt;/div&gt;&lt;/div&gt;&lt;/div&gt;&lt;/div&gt;" style="text;strokeColor=none;fillColor=none;align=left;verticalAlign=top;spacingLeft=4;spacingRight=4;overflow=hidden;rotatable=0;points=[[0,0.5],[1,0.5]];portConstraint=eastwest;whiteSpace=wrap;html=1;" vertex="1" parent="4nKQ3ArKpJ9SfnFAJcQ9-39">
          <mxGeometry y="138" width="220" height="32" as="geometry" />
        </mxCell>
        <mxCell id="4nKQ3ArKpJ9SfnFAJcQ9-43" value="BugLog" style="swimlane;fontStyle=1;align=center;verticalAlign=top;childLayout=stackLayout;horizontal=1;startSize=26;horizontalStack=0;resizeParent=1;resizeParentMax=0;resizeLast=0;collapsible=1;marginBottom=0;whiteSpace=wrap;html=1;" vertex="1" parent="1">
          <mxGeometry x="1080" y="515" width="220" height="170" as="geometry" />
        </mxCell>
        <mxCell id="4nKQ3ArKpJ9SfnFAJcQ9-44" value="&lt;div style=&quot;background-color: rgb(255, 255, 254); font-family: Menlo, Monaco, &amp;quot;Courier New&amp;quot;, monospace; line-height: 18px; white-space: pre;&quot;&gt;&lt;div style=&quot;line-height: 18px;&quot;&gt;&lt;div style=&quot;line-height: 18px;&quot;&gt;&lt;div style=&quot;line-height: 18px;&quot;&gt;&lt;div style=&quot;line-height: 18px;&quot;&gt;&lt;div&gt;&lt;span style=&quot;font-weight: bold;&quot;&gt;+&lt;/span&gt;&lt;span style=&quot;color: rgb(43, 222, 168);&quot;&gt;int&lt;/span&gt;&lt;span style=&quot;color: rgb(162, 40, 137);&quot;&gt; Id&lt;/span&gt;&lt;/div&gt;&lt;div&gt;&lt;span style=&quot;font-weight: bold;&quot;&gt;+&lt;/span&gt;&lt;span style=&quot;color: rgb(43, 222, 168);&quot;&gt;int&lt;/span&gt;&lt;span style=&quot;color: rgb(162, 40, 137);&quot;&gt; BugId&lt;/span&gt;&lt;/div&gt;&lt;div&gt;&lt;span style=&quot;font-weight: bold;&quot;&gt;+&lt;/span&gt;&lt;span style=&quot;color: rgb(43, 222, 168);&quot;&gt;string&lt;/span&gt;&lt;span style=&quot;color: rgb(162, 40, 137);&quot;&gt; Action&lt;/span&gt;&lt;/div&gt;&lt;div&gt;&lt;span style=&quot;font-weight: bold;&quot;&gt;+&lt;/span&gt;&lt;span style=&quot;color: rgb(43, 222, 168);&quot;&gt;string&lt;/span&gt;&lt;span style=&quot;color: rgb(162, 40, 137);&quot;&gt; PerformedBy&lt;/span&gt;&lt;/div&gt;&lt;div&gt;&lt;span style=&quot;font-weight: bold;&quot;&gt;+&lt;/span&gt;&lt;span style=&quot;color: rgb(43, 222, 168);&quot;&gt;DateTime&lt;/span&gt;&lt;span style=&quot;color: rgb(162, 40, 137);&quot;&gt; PerformedAt&lt;/span&gt;&lt;/div&gt;&lt;/div&gt;&lt;/div&gt;&lt;/div&gt;&lt;/div&gt;&lt;/div&gt;" style="text;strokeColor=none;fillColor=none;align=left;verticalAlign=top;spacingLeft=4;spacingRight=4;overflow=hidden;rotatable=0;points=[[0,0.5],[1,0.5]];portConstraint=eastwest;whiteSpace=wrap;html=1;" vertex="1" parent="4nKQ3ArKpJ9SfnFAJcQ9-43">
          <mxGeometry y="26" width="220" height="104" as="geometry" />
        </mxCell>
        <mxCell id="4nKQ3ArKpJ9SfnFAJcQ9-45" value="" style="line;strokeWidth=1;fillColor=none;align=left;verticalAlign=middle;spacingTop=-1;spacingLeft=3;spacingRight=3;rotatable=0;labelPosition=right;points=[];portConstraint=eastwest;strokeColor=inherit;" vertex="1" parent="4nKQ3ArKpJ9SfnFAJcQ9-43">
          <mxGeometry y="130" width="220" height="8" as="geometry" />
        </mxCell>
        <mxCell id="4nKQ3ArKpJ9SfnFAJcQ9-46" value="&lt;div style=&quot;background-color: rgb(255, 255, 254); font-family: Menlo, Monaco, &amp;quot;Courier New&amp;quot;, monospace; line-height: 18px; white-space: pre;&quot;&gt;&lt;div style=&quot;line-height: 18px;&quot;&gt;&lt;div style=&quot;line-height: 18px;&quot;&gt;&lt;div style=&quot;line-height: 18px;&quot;&gt;&lt;span style=&quot;font-weight: bold;&quot;&gt;+ &lt;/span&gt;&lt;span style=&quot;color: rgb(162, 40, 137);&quot;&gt;LogBugChanges&lt;/span&gt;&lt;span style=&quot;font-weight: bold;&quot;&gt;()&lt;/span&gt;&lt;/div&gt;&lt;/div&gt;&lt;/div&gt;&lt;/div&gt;" style="text;strokeColor=none;fillColor=none;align=left;verticalAlign=top;spacingLeft=4;spacingRight=4;overflow=hidden;rotatable=0;points=[[0,0.5],[1,0.5]];portConstraint=eastwest;whiteSpace=wrap;html=1;" vertex="1" parent="4nKQ3ArKpJ9SfnFAJcQ9-43">
          <mxGeometry y="138" width="220" height="32" as="geometry" />
        </mxCell>
        <mxCell id="4nKQ3ArKpJ9SfnFAJcQ9-47" value="PasswordReset" style="swimlane;fontStyle=1;align=center;verticalAlign=top;childLayout=stackLayout;horizontal=1;startSize=26;horizontalStack=0;resizeParent=1;resizeParentMax=0;resizeLast=0;collapsible=1;marginBottom=0;whiteSpace=wrap;html=1;" vertex="1" parent="1">
          <mxGeometry x="30" y="400" width="220" height="200" as="geometry" />
        </mxCell>
        <mxCell id="4nKQ3ArKpJ9SfnFAJcQ9-48" value="&lt;div style=&quot;background-color: rgb(255, 255, 254); font-family: Menlo, Monaco, &amp;quot;Courier New&amp;quot;, monospace; line-height: 18px; white-space: pre;&quot;&gt;&lt;div style=&quot;line-height: 18px;&quot;&gt;&lt;div&gt;&lt;div style=&quot;line-height: 18px;&quot;&gt;&lt;div&gt;&lt;span style=&quot;font-weight: bold;&quot;&gt;+&lt;/span&gt;&lt;span style=&quot;color: rgb(43, 222, 168);&quot;&gt;int&lt;/span&gt;&lt;span style=&quot;color: rgb(162, 40, 137);&quot;&gt; Id&lt;/span&gt;&lt;/div&gt;&lt;div&gt;&lt;span style=&quot;font-weight: bold;&quot;&gt;+&lt;/span&gt;&lt;span style=&quot;color: rgb(43, 222, 168);&quot;&gt;string&lt;/span&gt;&lt;span style=&quot;color: rgb(162, 40, 137);&quot;&gt; UserId&lt;/span&gt;&lt;/div&gt;&lt;div&gt;&lt;span style=&quot;font-weight: bold;&quot;&gt;+&lt;/span&gt;&lt;span style=&quot;color: rgb(43, 222, 168);&quot;&gt;string&lt;/span&gt;&lt;span style=&quot;color: rgb(162, 40, 137);&quot;&gt; Token&lt;/span&gt;&lt;/div&gt;&lt;div&gt;&lt;span style=&quot;font-weight: bold;&quot;&gt;+&lt;/span&gt;&lt;span style=&quot;color: rgb(43, 222, 168);&quot;&gt;DateTime&lt;/span&gt;&lt;span style=&quot;color: rgb(162, 40, 137);&quot;&gt; Expiry&lt;/span&gt;&lt;/div&gt;&lt;/div&gt;&lt;/div&gt;&lt;/div&gt;&lt;/div&gt;" style="text;strokeColor=none;fillColor=none;align=left;verticalAlign=top;spacingLeft=4;spacingRight=4;overflow=hidden;rotatable=0;points=[[0,0.5],[1,0.5]];portConstraint=eastwest;whiteSpace=wrap;html=1;" vertex="1" parent="4nKQ3ArKpJ9SfnFAJcQ9-47">
          <mxGeometry y="26" width="220" height="94" as="geometry" />
        </mxCell>
        <mxCell id="4nKQ3ArKpJ9SfnFAJcQ9-49" value="" style="line;strokeWidth=1;fillColor=none;align=left;verticalAlign=middle;spacingTop=-1;spacingLeft=3;spacingRight=3;rotatable=0;labelPosition=right;points=[];portConstraint=eastwest;strokeColor=inherit;" vertex="1" parent="4nKQ3ArKpJ9SfnFAJcQ9-47">
          <mxGeometry y="120" width="220" height="8" as="geometry" />
        </mxCell>
        <mxCell id="4nKQ3ArKpJ9SfnFAJcQ9-50" value="&lt;div style=&quot;background-color: rgb(255, 255, 254); font-family: Menlo, Monaco, &amp;quot;Courier New&amp;quot;, monospace; line-height: 18px; white-space: pre;&quot;&gt;&lt;div style=&quot;line-height: 18px;&quot;&gt;&lt;div style=&quot;line-height: 18px;&quot;&gt;&lt;div style=&quot;line-height: 18px;&quot;&gt;&lt;div style=&quot;line-height: 18px;&quot;&gt;&lt;div&gt;&lt;span style=&quot;font-weight: bold;&quot;&gt;+ &lt;/span&gt;&lt;span style=&quot;color: rgb(162, 40, 137);&quot;&gt;GenerateToken&lt;/span&gt;&lt;span style=&quot;font-weight: bold;&quot;&gt;()&lt;/span&gt;&lt;/div&gt;&lt;div&gt;&lt;span style=&quot;font-weight: bold;&quot;&gt;+ &lt;/span&gt;&lt;span style=&quot;color: rgb(162, 40, 137);&quot;&gt;ResetPassword&lt;/span&gt;&lt;span style=&quot;font-weight: bold;&quot;&gt;()&lt;/span&gt;&lt;/div&gt;&lt;/div&gt;&lt;/div&gt;&lt;/div&gt;&lt;/div&gt;&lt;/div&gt;" style="text;strokeColor=none;fillColor=none;align=left;verticalAlign=top;spacingLeft=4;spacingRight=4;overflow=hidden;rotatable=0;points=[[0,0.5],[1,0.5]];portConstraint=eastwest;whiteSpace=wrap;html=1;" vertex="1" parent="4nKQ3ArKpJ9SfnFAJcQ9-47">
          <mxGeometry y="128" width="220" height="72" as="geometry" />
        </mxCell>
        <mxCell id="4nKQ3ArKpJ9SfnFAJcQ9-54" style="edgeStyle=orthogonalEdgeStyle;rounded=0;orthogonalLoop=1;jettySize=auto;html=1;entryX=0.001;entryY=0.151;entryDx=0;entryDy=0;entryPerimeter=0;" edge="1" parent="1" source="4nKQ3ArKpJ9SfnFAJcQ9-31" target="4nKQ3ArKpJ9SfnFAJcQ9-16">
          <mxGeometry relative="1" as="geometry">
            <Array as="points">
              <mxPoint x="140" y="319" />
            </Array>
          </mxGeometry>
        </mxCell>
        <mxCell id="4nKQ3ArKpJ9SfnFAJcQ9-55" style="edgeStyle=orthogonalEdgeStyle;rounded=0;orthogonalLoop=1;jettySize=auto;html=1;entryX=0.001;entryY=0.361;entryDx=0;entryDy=0;entryPerimeter=0;" edge="1" parent="1" source="4nKQ3ArKpJ9SfnFAJcQ9-47" target="4nKQ3ArKpJ9SfnFAJcQ9-16">
          <mxGeometry relative="1" as="geometry" />
        </mxCell>
        <mxCell id="4nKQ3ArKpJ9SfnFAJcQ9-56" style="edgeStyle=orthogonalEdgeStyle;rounded=0;orthogonalLoop=1;jettySize=auto;html=1;entryX=0.44;entryY=0.986;entryDx=0;entryDy=0;entryPerimeter=0;" edge="1" parent="1" source="4nKQ3ArKpJ9SfnFAJcQ9-35" target="4nKQ3ArKpJ9SfnFAJcQ9-18">
          <mxGeometry relative="1" as="geometry" />
        </mxCell>
        <mxCell id="4nKQ3ArKpJ9SfnFAJcQ9-62" style="edgeStyle=orthogonalEdgeStyle;rounded=0;orthogonalLoop=1;jettySize=auto;html=1;entryX=1.001;entryY=0.697;entryDx=0;entryDy=0;entryPerimeter=0;" edge="1" parent="1" source="4nKQ3ArKpJ9SfnFAJcQ9-27" target="4nKQ3ArKpJ9SfnFAJcQ9-16">
          <mxGeometry relative="1" as="geometry" />
        </mxCell>
        <mxCell id="4nKQ3ArKpJ9SfnFAJcQ9-63" style="edgeStyle=orthogonalEdgeStyle;rounded=0;orthogonalLoop=1;jettySize=auto;html=1;exitX=1;exitY=0.5;exitDx=0;exitDy=0;entryX=0.009;entryY=0.21;entryDx=0;entryDy=0;entryPerimeter=0;" edge="1" parent="1" source="4nKQ3ArKpJ9SfnFAJcQ9-24" target="4nKQ3ArKpJ9SfnFAJcQ9-40">
          <mxGeometry relative="1" as="geometry" />
        </mxCell>
        <mxCell id="4nKQ3ArKpJ9SfnFAJcQ9-67" style="edgeStyle=orthogonalEdgeStyle;rounded=0;orthogonalLoop=1;jettySize=auto;html=1;entryX=0.009;entryY=0.197;entryDx=0;entryDy=0;entryPerimeter=0;" edge="1" parent="1" source="4nKQ3ArKpJ9SfnFAJcQ9-23" target="4nKQ3ArKpJ9SfnFAJcQ9-20">
          <mxGeometry relative="1" as="geometry" />
        </mxCell>
        <mxCell id="4nKQ3ArKpJ9SfnFAJcQ9-68" value="" style="endArrow=classic;html=1;rounded=0;" edge="1" parent="1">
          <mxGeometry width="50" height="50" relative="1" as="geometry">
            <mxPoint x="650" y="365" as="sourcePoint" />
            <mxPoint x="800" y="365" as="targetPoint" />
          </mxGeometry>
        </mxCell>
        <mxCell id="4nKQ3ArKpJ9SfnFAJcQ9-70" value="&amp;lt;Enumeration&amp;gt;&lt;div&gt;BugStatus&lt;/div&gt;" style="swimlane;fontStyle=1;align=center;verticalAlign=top;childLayout=stackLayout;horizontal=1;startSize=40;horizontalStack=0;resizeParent=1;resizeParentMax=0;resizeLast=0;collapsible=1;marginBottom=0;whiteSpace=wrap;html=1;" vertex="1" parent="1">
          <mxGeometry x="607" y="720" width="220" height="216" as="geometry" />
        </mxCell>
        <mxCell id="4nKQ3ArKpJ9SfnFAJcQ9-71" value="&lt;div style=&quot;background-color: rgb(255, 255, 254); font-family: Menlo, Monaco, &amp;quot;Courier New&amp;quot;, monospace; line-height: 18px; white-space: pre;&quot;&gt;&lt;div style=&quot;line-height: 18px;&quot;&gt;&lt;div style=&quot;line-height: 18px;&quot;&gt;&lt;div style=&quot;line-height: 18px;&quot;&gt;&lt;div style=&quot;line-height: 18px;&quot;&gt;&lt;div style=&quot;line-height: 18px;&quot;&gt;&lt;div&gt;&lt;span style=&quot;color: rgb(162, 40, 137);&quot;&gt;  New&lt;/span&gt;&lt;/div&gt;&lt;div&gt;  &lt;span style=&quot;color: rgb(162, 40, 137);&quot;&gt;Assigned&lt;/span&gt;&lt;/div&gt;&lt;div&gt;  &lt;span style=&quot;color: rgb(162, 40, 137);&quot;&gt;InProgress&lt;/span&gt;&lt;/div&gt;&lt;div&gt;  &lt;span style=&quot;color: rgb(162, 40, 137);&quot;&gt;Fixed&lt;/span&gt;&lt;/div&gt;&lt;div&gt;  &lt;span style=&quot;color: rgb(162, 40, 137);&quot;&gt;Retesting&lt;/span&gt;&lt;/div&gt;&lt;div&gt;  &lt;span style=&quot;color: rgb(162, 40, 137);&quot;&gt;Verified&lt;/span&gt;&lt;/div&gt;&lt;div&gt;  &lt;span style=&quot;color: rgb(162, 40, 137);&quot;&gt;Reopened&lt;/span&gt;&lt;/div&gt;&lt;div&gt;  &lt;span style=&quot;color: rgb(162, 40, 137);&quot;&gt;Closed&lt;/span&gt;&lt;/div&gt;&lt;/div&gt;&lt;/div&gt;&lt;/div&gt;&lt;/div&gt;&lt;/div&gt;&lt;/div&gt;" style="text;strokeColor=none;fillColor=none;align=left;verticalAlign=top;spacingLeft=4;spacingRight=4;overflow=hidden;rotatable=0;points=[[0,0.5],[1,0.5]];portConstraint=eastwest;whiteSpace=wrap;html=1;" vertex="1" parent="4nKQ3ArKpJ9SfnFAJcQ9-70">
          <mxGeometry y="40" width="220" height="150" as="geometry" />
        </mxCell>
        <mxCell id="4nKQ3ArKpJ9SfnFAJcQ9-72" value="" style="line;strokeWidth=1;fillColor=none;align=left;verticalAlign=middle;spacingTop=-1;spacingLeft=3;spacingRight=3;rotatable=0;labelPosition=right;points=[];portConstraint=eastwest;strokeColor=inherit;" vertex="1" parent="4nKQ3ArKpJ9SfnFAJcQ9-70">
          <mxGeometry y="190" width="220" height="8" as="geometry" />
        </mxCell>
        <mxCell id="4nKQ3ArKpJ9SfnFAJcQ9-73" value="&lt;div style=&quot;background-color: rgb(255, 255, 254); font-family: Menlo, Monaco, &amp;quot;Courier New&amp;quot;, monospace; line-height: 18px; white-space: pre;&quot;&gt;&lt;div style=&quot;line-height: 18px;&quot;&gt;&lt;div style=&quot;line-height: 18px;&quot;&gt;&lt;div style=&quot;line-height: 18px;&quot;&gt;&lt;br&gt;&lt;/div&gt;&lt;/div&gt;&lt;/div&gt;&lt;/div&gt;" style="text;strokeColor=none;fillColor=none;align=left;verticalAlign=top;spacingLeft=4;spacingRight=4;overflow=hidden;rotatable=0;points=[[0,0.5],[1,0.5]];portConstraint=eastwest;whiteSpace=wrap;html=1;" vertex="1" parent="4nKQ3ArKpJ9SfnFAJcQ9-70">
          <mxGeometry y="198" width="220" height="18" as="geometry" />
        </mxCell>
        <mxCell id="4nKQ3ArKpJ9SfnFAJcQ9-74" value="&amp;lt;Enumeration&amp;gt;&lt;div&gt;BugPriority&lt;/div&gt;" style="swimlane;fontStyle=1;align=center;verticalAlign=top;childLayout=stackLayout;horizontal=1;startSize=40;horizontalStack=0;resizeParent=1;resizeParentMax=0;resizeLast=0;collapsible=1;marginBottom=0;whiteSpace=wrap;html=1;" vertex="1" parent="1">
          <mxGeometry x="960" y="720" width="220" height="156" as="geometry" />
        </mxCell>
        <mxCell id="4nKQ3ArKpJ9SfnFAJcQ9-75" value="&lt;div style=&quot;background-color: rgb(255, 255, 254); font-family: Menlo, Monaco, &amp;quot;Courier New&amp;quot;, monospace; line-height: 18px; white-space: pre;&quot;&gt;&lt;div style=&quot;line-height: 18px;&quot;&gt;&lt;div style=&quot;line-height: 18px;&quot;&gt;&lt;div style=&quot;line-height: 18px;&quot;&gt;&lt;div style=&quot;line-height: 18px;&quot;&gt;&lt;div style=&quot;line-height: 18px;&quot;&gt;&lt;div style=&quot;line-height: 18px;&quot;&gt;&lt;div&gt;&lt;span style=&quot;color: rgb(162, 40, 137);&quot;&gt;  Low&lt;/span&gt;&lt;/div&gt;&lt;div&gt;  &lt;span style=&quot;color: rgb(162, 40, 137);&quot;&gt;Medium&lt;/span&gt;&lt;/div&gt;&lt;div&gt;  &lt;span style=&quot;color: rgb(162, 40, 137);&quot;&gt;High&lt;/span&gt;&lt;/div&gt;&lt;div&gt;  &lt;span style=&quot;color: rgb(162, 40, 137);&quot;&gt;Critical&lt;/span&gt;&lt;/div&gt;&lt;/div&gt;&lt;/div&gt;&lt;/div&gt;&lt;/div&gt;&lt;/div&gt;&lt;/div&gt;&lt;/div&gt;" style="text;strokeColor=none;fillColor=none;align=left;verticalAlign=top;spacingLeft=4;spacingRight=4;overflow=hidden;rotatable=0;points=[[0,0.5],[1,0.5]];portConstraint=eastwest;whiteSpace=wrap;html=1;" vertex="1" parent="4nKQ3ArKpJ9SfnFAJcQ9-74">
          <mxGeometry y="40" width="220" height="90" as="geometry" />
        </mxCell>
        <mxCell id="4nKQ3ArKpJ9SfnFAJcQ9-76" value="" style="line;strokeWidth=1;fillColor=none;align=left;verticalAlign=middle;spacingTop=-1;spacingLeft=3;spacingRight=3;rotatable=0;labelPosition=right;points=[];portConstraint=eastwest;strokeColor=inherit;" vertex="1" parent="4nKQ3ArKpJ9SfnFAJcQ9-74">
          <mxGeometry y="130" width="220" height="8" as="geometry" />
        </mxCell>
        <mxCell id="4nKQ3ArKpJ9SfnFAJcQ9-77" value="&lt;div style=&quot;background-color: rgb(255, 255, 254); font-family: Menlo, Monaco, &amp;quot;Courier New&amp;quot;, monospace; line-height: 18px; white-space: pre;&quot;&gt;&lt;div style=&quot;line-height: 18px;&quot;&gt;&lt;div style=&quot;line-height: 18px;&quot;&gt;&lt;div style=&quot;line-height: 18px;&quot;&gt;&lt;br&gt;&lt;/div&gt;&lt;/div&gt;&lt;/div&gt;&lt;/div&gt;" style="text;strokeColor=none;fillColor=none;align=left;verticalAlign=top;spacingLeft=4;spacingRight=4;overflow=hidden;rotatable=0;points=[[0,0.5],[1,0.5]];portConstraint=eastwest;whiteSpace=wrap;html=1;" vertex="1" parent="4nKQ3ArKpJ9SfnFAJcQ9-74">
          <mxGeometry y="138" width="220" height="18" as="geometry" />
        </mxCell>
        <mxCell id="4nKQ3ArKpJ9SfnFAJcQ9-78" style="edgeStyle=orthogonalEdgeStyle;rounded=0;orthogonalLoop=1;jettySize=auto;html=1;entryX=1.009;entryY=0.336;entryDx=0;entryDy=0;entryPerimeter=0;" edge="1" parent="1" source="4nKQ3ArKpJ9SfnFAJcQ9-19" target="4nKQ3ArKpJ9SfnFAJcQ9-71">
          <mxGeometry relative="1" as="geometry" />
        </mxCell>
        <mxCell id="4nKQ3ArKpJ9SfnFAJcQ9-80" style="edgeStyle=orthogonalEdgeStyle;rounded=0;orthogonalLoop=1;jettySize=auto;html=1;entryX=-0.005;entryY=0.559;entryDx=0;entryDy=0;entryPerimeter=0;" edge="1" parent="1" source="4nKQ3ArKpJ9SfnFAJcQ9-19" target="4nKQ3ArKpJ9SfnFAJcQ9-75">
          <mxGeometry relative="1" as="geometry" />
        </mxCell>
      </root>
    </mxGraphModel>
  </diagram>
</mxfile>
